<svg xmlns="http://www.w3.org/2000/svg" viewBox="0 0 48 48">
  <path fill="#C0C0C0" d="M 24 2.0214844 C 23.61875 2.0214844 23.237312 2.1665781 22.945312 2.4550781 L 20.484375 4.8886719 L 17.136719 4.0097656 C 16.339719 3.7987656 15.525594 4.2734063 15.308594 5.0664062 L 14.400391 8.4042969 L 11.0625 9.3144531 C 10.2685 9.5304531 9.7978594 10.346578 10.005859 11.142578 L 10.882812 14.490234 L 8.4492188 16.949219 C 7.8712187 17.533219 7.8712188 18.474594 8.4492188 19.058594 L 10.882812 21.519531 L 10.003906 24.867188 C 9.7949063 25.663187 10.266547 26.478313 11.060547 26.695312 L 14.398438 27.605469 L 15.308594 30.943359 C 15.525594 31.736359 16.339719 32.211047 17.136719 31.998047 L 20.484375 31.121094 L 22.945312 33.554688 C 23.237313 33.843688 23.620953 33.986328 24.001953 33.986328 C 24.382953 33.986328 24.764641 33.842688 25.056641 33.554688 L 27.517578 31.121094 L 30.863281 32 C 31.663281 32.212 32.474406 31.736359 32.691406 30.943359 L 33.599609 27.605469 L 36.9375 26.695312 C 37.7315 26.479312 38.202141 25.663188 37.994141 24.867188 L 37.117188 21.519531 L 39.550781 19.058594 C 40.128781 18.474594 40.128781 17.534219 39.550781 16.949219 L 37.117188 14.490234 L 37.996094 11.142578 C 38.205094 10.346578 37.733453 9.5314531 36.939453 9.3144531 L 33.601562 8.4042969 L 32.691406 5.0664062 C 32.474406 4.2734062 31.663281 3.7987656 30.863281 4.0097656 L 27.515625 4.8886719 L 25.054688 2.4550781 C 24.762687 2.1665781 24.38125 2.0214844 24 2.0214844 z M 19.886719 33.345703 L 15.726562 34.4375 C 15.478563 34.5025 15.231047 34.495453 14.998047 34.439453 L 14.998047 44.5 C 14.998047 45.053 15.302062 45.562266 15.789062 45.822266 C 16.276063 46.084266 16.870078 46.055047 17.330078 45.748047 L 23.720703 41.486328 C 23.890703 41.375328 24.107391 41.374328 24.275391 41.486328 L 30.667969 45.746094 C 30.919969 45.915094 31.209 46 31.5 46 C 31.743 46 31.985031 45.941266 32.207031 45.822266 C 32.694031 45.562266 33 45.053 33 44.5 L 33 34.439453 C 32.768 34.494453 32.519484 34.5025 32.271484 34.4375 L 28.111328 33.345703 L 25.054688 36.367188 C 24.762687 36.656188 24.379047 36.800781 23.998047 36.800781 C 23.617047 36.800781 23.235359 36.655187 22.943359 36.367188 L 19.886719 33.345703 z"></path>
</svg>